<?xml version="1.0" standalone="no"?>
<!DOCTYPE svg PUBLIC "-//W3C//DTD SVG 20010904//EN"
 "http://www.w3.org/TR/2001/REC-SVG-20010904/DTD/svg10.dtd">
<svg version="1.0" xmlns="http://www.w3.org/2000/svg"
 width="186.000000pt" height="231.000000pt" viewBox="0 0 186.000000 231.000000"
 preserveAspectRatio="xMidYMid meet">

<g transform="translate(0.000000,231.000000) scale(0.100000,-0.100000)"
fill="#000000" stroke="none">
<path d="M212 2251 c-30 -27 -31 -27 -34 -7 -3 23 -34 34 -51 17 -13 -13 -11
-119 3 -171 11 -40 31 -54 62 -44 13 4 17 11 13 22 -22 53 -18 56 25 19 47
-40 57 -41 74 -13 9 15 3 25 -38 61 -52 47 -52 52 -4 94 23 18 26 26 17 37
-17 21 -33 17 -67 -15z"/>
<path d="M1102 2257 c-35 -21 -48 -45 -112 -219 -34 -90 -72 -192 -85 -228
-32 -84 -109 -186 -188 -249 -35 -27 -124 -90 -199 -140 -74 -49 -138 -97
-142 -106 -14 -37 -5 -75 24 -108 16 -19 102 -82 189 -141 122 -82 179 -128
244 -196 141 -148 250 -332 331 -560 31 -85 46 -116 60 -118 25 -5 36 14 36
66 0 152 -118 470 -248 666 -47 71 -222 256 -296 313 l-39 30 64 43 c98 66
274 250 338 352 100 164 156 323 168 473 5 69 3 83 -14 103 -23 29 -96 39
-131 19z"/>
<path d="M171 1956 c-19 -23 -51 -127 -51 -167 0 -30 5 -39 21 -44 22 -7 39 7
39 33 0 7 14 12 34 12 26 0 35 -5 39 -21 8 -30 51 -22 55 10 4 25 -31 131 -56
169 -16 25 -63 30 -81 8z m53 -102 c10 -25 7 -31 -14 -37 -22 -6 -23 -3 -14
31 7 26 19 29 28 6z"/>
<path d="M1315 1733 c-77 -3 -93 -6 -107 -24 -22 -26 -23 -60 -3 -135 17 -67
8 -92 -44 -114 -17 -7 -31 -16 -31 -20 0 -5 24 -29 52 -54 59 -52 72 -54 175
-30 54 13 98 14 218 9 123 -5 153 -4 169 8 19 14 19 15 -5 30 -38 24 -138 46
-282 62 -73 8 -133 14 -134 15 -2 0 -3 25 -3 55 0 73 21 85 104 61 48 -14 58
-21 70 -51 8 -19 19 -35 23 -35 4 0 28 36 51 81 51 92 51 121 1 138 -18 6 -62
10 -98 9 -36 -1 -106 -4 -156 -5z"/>
<path d="M268 1645 c-3 -3 -38 -9 -79 -13 -74 -7 -74 -7 -72 -36 2 -33 17 -46
50 -46 16 0 24 -8 29 -27 20 -88 20 -88 45 -88 23 0 24 3 24 64 1 58 3 64 28
77 27 15 32 29 21 58 -6 15 -35 22 -46 11z"/>
<path d="M192 1333 c-40 -19 -71 -62 -79 -106 -12 -79 91 -124 152 -67 59 55
72 124 30 165 -28 29 -57 31 -103 8z m38 -88 c17 -20 8 -50 -14 -50 -23 0 -41
27 -33 49 8 20 31 21 47 1z"/>
<path d="M1019 1306 c-8 -18 -7 -51 5 -132 28 -181 38 -222 57 -239 17 -16 18
-14 34 37 40 133 39 295 -1 339 -26 28 -82 25 -95 -5z"/>
<path d="M1299 1236 c-97 -22 -92 -12 -54 -127 19 -57 35 -107 35 -111 0 -4
-16 -8 -36 -8 -47 0 -41 -17 20 -54 38 -24 61 -30 126 -34 80 -5 270 22 270
38 0 4 -12 15 -26 25 -71 47 -80 84 -38 166 14 28 23 58 20 65 -3 8 -25 24
-48 34 -50 23 -178 26 -269 6z m211 -181 l0 -52 -64 -11 c-95 -18 -91 -20
-104 52 -19 101 -25 95 78 78 l90 -15 0 -52z"/>
<path d="M200 1039 c-56 -17 -80 -46 -80 -95 0 -54 36 -99 91 -116 33 -10 45
-9 75 5 24 12 34 23 32 35 -4 17 -9 17 -71 5 -54 -10 -89 54 -50 92 12 13 28
16 61 12 38 -4 45 -2 52 17 16 41 -42 65 -110 45z"/>
<path d="M261 741 c-7 -5 -16 -29 -18 -55 -5 -45 -7 -46 -39 -46 -34 0 -34 1
-34 45 0 50 -18 67 -46 44 -14 -11 -16 -27 -11 -92 6 -89 26 -130 60 -125 19
3 22 8 19 41 -3 35 -1 37 26 37 24 0 31 -5 38 -32 8 -26 15 -33 34 -33 19 0
25 5 24 23 0 12 -1 63 -2 112 -2 78 -4 90 -19 90 -10 0 -24 -4 -32 -9z"/>
<path d="M163 424 c-3 -10 0 -22 8 -28 17 -13 15 -99 -3 -135 -11 -20 -10 -25
7 -37 25 -18 79 -18 95 1 14 16 6 35 -16 35 -11 0 -14 15 -14 65 0 58 2 65 20
65 23 0 24 4 10 31 -14 25 -97 28 -107 3z"/>
</g>
</svg>
