<?xml version="1.0" encoding="UTF-8"?>
<!DOCTYPE svg PUBLIC "-//W3C//DTD SVG 1.1//EN" "http://www.w3.org/Graphics/SVG/1.1/DTD/svg11.dtd">
<svg xmlns="http://www.w3.org/2000/svg" version="1.1" width="31px" height="31px" style="shape-rendering:geometricPrecision; text-rendering:geometricPrecision; image-rendering:optimizeQuality; fill-rule:evenodd; clip-rule:evenodd" xmlns:xlink="http://www.w3.org/1999/xlink">
<g><path style="opacity:0.495" fill="#fefffe" d="M 13.5,-0.5 C 14.5,-0.5 15.5,-0.5 16.5,-0.5C 16.5,1.16667 16.5,2.83333 16.5,4.5C 15.5,4.5 14.5,4.5 13.5,4.5C 13.5,2.83333 13.5,1.16667 13.5,-0.5 Z"/></g>
<g><path style="opacity:0.578" fill="#fefffe" d="M 8.5,7.5 C 7.83333,7.5 7.5,7.83333 7.5,8.5C 5.85463,7.52134 4.5213,6.188 3.5,4.5C 5.73295,3.98392 7.39962,4.98392 8.5,7.5 Z"/></g>
<g><path style="opacity:0.491" fill="#fefffe" d="M 22.5,8.5 C 22.5,7.83333 22.1667,7.5 21.5,7.5C 22.0211,4.2805 23.6878,3.2805 26.5,4.5C 25.4787,6.188 24.1454,7.52134 22.5,8.5 Z"/></g>
<g><path style="opacity:0.873" fill="#fefffe" d="M 21.5,7.5 C 22.1667,7.5 22.5,7.83333 22.5,8.5C 25.1647,12.8279 25.1647,17.1612 22.5,21.5C 21.8333,21.5 21.5,21.8333 21.5,22.5C 17.1612,25.1647 12.8279,25.1647 8.5,22.5C 8.5,21.8333 8.16667,21.5 7.5,21.5C 4.83333,17.1667 4.83333,12.8333 7.5,8.5C 8.16667,8.5 8.5,8.16667 8.5,7.5C 12.8022,4.93482 17.1355,4.93482 21.5,7.5 Z"/></g>
<g><path style="opacity:0.487" fill="#fefffe" d="M -0.5,13.5 C 1.16667,13.5 2.83333,13.5 4.5,13.5C 4.5,14.5 4.5,15.5 4.5,16.5C 2.83333,16.5 1.16667,16.5 -0.5,16.5C -0.5,15.5 -0.5,14.5 -0.5,13.5 Z"/></g>
<g><path style="opacity:0.493" fill="#fefffe" d="M 30.5,13.5 C 30.5,14.5 30.5,15.5 30.5,16.5C 28.8333,16.5 27.1667,16.5 25.5,16.5C 25.5,15.5 25.5,14.5 25.5,13.5C 27.1667,13.5 28.8333,13.5 30.5,13.5 Z"/></g>
<g><path style="opacity:0.489" fill="#fefffe" d="M 7.5,21.5 C 8.16667,21.5 8.5,21.8333 8.5,22.5C 7.52134,24.1454 6.188,25.4787 4.5,26.5C 3.2805,23.6878 4.2805,22.0211 7.5,21.5 Z"/></g>
<g><path style="opacity:0.565" fill="#fefffe" d="M 22.5,21.5 C 24.1454,22.4787 25.4787,23.812 26.5,25.5C 24.2671,26.0161 22.6004,25.0161 21.5,22.5C 22.1667,22.5 22.5,22.1667 22.5,21.5 Z"/></g>
<g><path style="opacity:0.488" fill="#fefffe" d="M 16.5,30.5 C 15.5,30.5 14.5,30.5 13.5,30.5C 13.5,28.8333 13.5,27.1667 13.5,25.5C 14.5,25.5 15.5,25.5 16.5,25.5C 16.5,27.1667 16.5,28.8333 16.5,30.5 Z"/></g>
</svg>
